<?xml version="1.0" standalone="no"?>
<!DOCTYPE svg PUBLIC "-//W3C//DTD SVG 20010904//EN"
 "http://www.w3.org/TR/2001/REC-SVG-20010904/DTD/svg10.dtd">
<svg version="1.0" xmlns="http://www.w3.org/2000/svg"
 width="200.000000pt" height="200.000000pt" viewBox="0 0 200.000000 200.000000"
 preserveAspectRatio="xMidYMid meet">

<g transform="translate(0.000000,200.000000) scale(0.100000,-0.100000)"
fill="#000000" stroke="none">
<path d="M852 1931 c-7 -4 -23 -6 -35 -4 -13 3 -40 -8 -67 -26 -25 -17 -50
-31 -57 -31 -17 0 -72 -95 -75 -130 -1 -16 -7 -30 -13 -30 -6 0 -5 -3 2 -8 8
-5 8 -16 -2 -45 -7 -21 -18 -68 -24 -105 -29 -169 -33 -183 -50 -176 -57 23
-69 -2 -52 -108 8 -46 13 -97 12 -115 0 -17 6 -39 15 -48 10 -9 17 -36 18 -73
2 -34 13 -84 29 -123 33 -80 33 -94 5 -113 -20 -12 -97 -32 -162 -41 -12 -2
-48 -13 -81 -24 -73 -27 -109 -22 -179 23 -28 18 -70 40 -93 49 l-43 17 0
-410 0 -410 820 0 820 0 -6 30 c-6 29 -5 30 30 30 25 0 36 -4 36 -15 0 -8 5
-15 10 -15 6 0 10 -7 10 -16 0 -13 12 -15 86 -11 91 6 124 16 58 18 l-39 2 45
8 c25 4 64 8 87 8 l42 1 1 269 0 269 -30 10 c-16 6 -30 16 -30 23 0 7 -10 9
-25 6 -18 -3 -29 1 -36 14 -15 29 -103 24 -124 -7 -8 -13 -15 -31 -15 -40 0
-11 -5 -14 -17 -9 -10 4 -31 8 -48 9 -30 1 -30 2 -29 54 2 43 -1 51 -12 41 -7
-6 -13 -14 -12 -17 4 -34 -4 -42 -41 -42 -22 0 -43 5 -47 11 -3 6 -14 9 -24 6
-12 -3 -17 0 -14 8 3 7 0 16 -6 20 -8 5 -8 11 1 21 6 8 10 14 8 15 -31 6 -38
5 -43 -8 -3 -8 -4 -18 -1 -22 2 -4 -2 -8 -10 -8 -8 0 -15 5 -15 10 0 6 -3 7
-6 4 -4 -4 -23 6 -43 22 -30 24 -40 27 -59 18 -18 -8 -26 -7 -32 3 -5 8 -7 17
-5 20 2 3 -4 11 -13 17 -26 16 -62 -2 -62 -31 0 -13 -3 -31 -6 -40 -5 -14 -9
-14 -32 1 -15 9 -32 21 -37 27 -6 6 -19 16 -30 22 -11 7 -19 19 -17 27 1 9 -2
18 -8 22 -6 4 -7 -1 -3 -11 5 -13 2 -15 -18 -9 -24 7 -24 7 4 -22 33 -35 34
-64 5 -112 -40 -66 -91 -108 -152 -126 -66 -19 -86 -14 -32 9 31 13 36 19 34
45 -1 19 -9 31 -20 34 -15 4 -21 23 -17 53 0 4 -5 10 -11 14 -13 8 -4 20 55
71 57 48 73 105 33 111 -27 4 -35 32 -18 64 7 12 10 30 7 38 -3 8 -2 18 3 21
12 8 -17 73 -50 108 l-25 28 -6 -43 c-7 -43 4 -72 38 -106 20 -20 16 -34 -6
-23 -10 6 -21 7 -25 4 -8 -8 -86 18 -86 29 0 5 14 21 30 35 30 25 32 43 3 43
-44 0 -80 79 -47 105 7 5 18 29 24 53 11 44 36 57 46 25 3 -10 14 -37 25 -61
22 -49 42 -53 104 -22 22 11 49 20 62 20 17 0 21 4 16 17 -4 11 -3 14 5 9 8
-5 10 -1 6 11 -10 28 -62 71 -102 84 -20 6 -41 18 -45 26 -5 7 -12 11 -17 8
-4 -3 -11 7 -15 23 l-7 27 -23 -29 -24 -30 -6 27 c-4 14 -4 31 0 37 9 14 91
55 142 70 24 8 40 17 36 23 -4 7 1 8 12 3 14 -5 16 -4 6 7 -13 17 4 35 40 42
12 3 26 10 31 17 5 9 8 7 8 -6 0 -17 3 -16 30 9 16 16 33 26 36 22 11 -11 45
29 38 47 -5 12 -10 14 -19 6 -9 -8 -15 -8 -20 0 -3 5 -1 10 5 10 6 0 9 4 6 8
-3 5 5 8 17 7 18 -2 22 -8 22 -37 0 -20 4 -34 9 -31 5 3 6 -7 3 -22 -6 -33 0
-55 15 -55 6 0 8 14 3 36 -3 21 -2 34 3 30 5 -3 10 17 11 44 1 28 -3 50 -8 50
-5 0 -13 9 -16 20 -4 11 -21 37 -39 56 l-33 36 -5 -31 c-4 -31 5 -43 16 -18 2
6 3 1 2 -13 -2 -14 1 -31 6 -37 8 -9 6 -13 -6 -13 -10 0 -15 4 -12 9 3 5 -1
14 -9 21 -8 7 -13 23 -11 36 3 13 0 27 -6 30 -7 4 -8 2 -4 -4 4 -7 1 -12 -8
-12 -11 0 -13 -9 -11 -32 l4 -31 -20 21 c-21 24 -35 29 -23 10 4 -7 3 -8 -4
-4 -7 4 -23 27 -38 52 -14 24 -32 44 -40 44 -7 0 -16 11 -20 25 -8 31 -24 23
-24 -11 0 -14 4 -22 10 -19 6 3 7 -1 4 -9 -4 -9 1 -18 10 -22 9 -3 16 -10 16
-15 0 -4 -7 -6 -15 -3 -13 5 -14 2 -5 -20 5 -14 17 -40 25 -56 9 -17 13 -30 9
-30 -4 0 -1 -8 6 -17 7 -10 -6 1 -29 24 -37 38 -41 40 -37 18 3 -14 1 -25 -4
-25 -11 0 -21 30 -13 42 3 7 1 8 -5 4 -7 -4 -20 24 -38 80 -22 73 -24 88 -12
100 12 12 18 7 42 -29 18 -27 26 -34 23 -19 -3 12 -1 22 4 22 5 0 9 7 9 15 0
18 42 14 48 -5 3 -7 0 -10 -6 -6 -6 4 -8 -2 -5 -14 3 -11 9 -20 13 -20 5 0 16
-3 24 -6 12 -4 15 -2 11 9 -7 17 11 26 48 22 15 -2 27 1 27 6 0 5 -4 9 -10 9
-18 0 -25 2 -42 11 -14 8 -18 6 -18 -8 -1 -17 -1 -17 -11 0 -8 13 -7 23 2 35
8 9 10 14 5 10 -4 -4 -17 2 -29 12 -17 16 -23 17 -36 7 -12 -9 -13 -9 -7 1 14
23 -80 43 -112 23z m85 -37 c-3 -3 -12 -4 -19 -1 -8 3 -5 6 6 6 11 1 17 -2 13
-5z m-130 -56 c17 -20 53 -83 53 -95 0 -2 -10 2 -22 8 -25 13 -53 39 -43 39 3
0 -7 12 -22 26 -15 14 -22 22 -14 18 11 -5 13 -3 8 9 -9 25 16 21 40 -5z m237
-134 c3 -8 2 -12 -4 -9 -6 3 -10 10 -10 16 0 14 7 11 14 -7z m-194 -814 c0 -5
0 -13 -1 -17 0 -3 6 -10 15 -15 9 -5 16 -18 16 -28 0 -11 7 -20 15 -20 21 0
19 -24 -5 -45 -11 -10 -20 -15 -20 -11 0 3 -14 -1 -31 -10 -20 -10 -28 -11
-24 -3 6 9 2 11 -13 7 -12 -4 -22 -3 -22 1 0 4 -9 17 -21 30 -25 27 -21 32 28
40 33 5 38 10 39 34 1 15 -3 27 -8 27 -5 0 -6 5 -3 10 3 6 13 10 21 10 8 0 14
-4 14 -10z m581 -381 c7 -13 6 -19 -1 -19 -6 0 -13 7 -16 15 -4 8 -9 13 -14
10 -4 -2 -12 7 -18 20 -12 25 -12 25 14 9 13 -9 29 -25 35 -35z m376 30 c2
-17 -1 -19 -10 -10 -6 6 -19 11 -28 11 -10 0 -21 5 -24 10 -4 6 8 10 27 10 27
0 34 -4 35 -21z m136 -6 c-13 -2 -23 -9 -23 -14 0 -5 -7 -9 -15 -9 -8 0 -15 4
-15 9 0 11 25 19 55 18 16 0 16 -1 -2 -4z m-326 -199 c-3 -3 -12 -4 -19 -1 -8
3 -5 6 6 6 11 1 17 -2 13 -5z m-50 -26 c-3 -8 -6 -5 -6 6 -1 11 2 17 5 13 3
-3 4 -12 1 -19z m216 5 c-18 -2 -48 -2 -65 0 -18 2 -4 4 32 4 36 0 50 -2 33
-4z m160 -10 c-7 -2 -19 -2 -25 0 -7 3 -2 5 12 5 14 0 19 -2 13 -5z m-356 -65
c-3 -8 -6 -5 -6 6 -1 11 2 17 5 13 3 -3 4 -12 1 -19z m361 -115 c-10 -2 -26
-2 -35 0 -10 3 -2 5 17 5 19 0 27 -2 18 -5z m-238 -22 c0 -6 -18 -9 -40 -8
-22 1 -40 5 -40 9 0 4 18 8 40 8 22 0 40 -4 40 -9z m-22 -28 c-10 -2 -28 -2
-40 0 -13 2 -5 4 17 4 22 1 32 -1 23 -4z m240 0 c-21 -2 -57 -2 -80 0 -24 2
-7 4 37 4 44 0 63 -2 43 -4z m-330 -28 c-3 -3 -9 2 -12 12 -6 14 -5 15 5 6 7
-7 10 -15 7 -18z m355 8 c-13 -2 -33 -2 -45 0 -13 2 -3 4 22 4 25 0 35 -2 23
-4z m-180 -30 c-7 -2 -19 -2 -25 0 -7 3 -2 5 12 5 14 0 19 -2 13 -5z"/>
<path d="M1178 1139 c-21 -15 -28 -29 -28 -53 0 -18 -5 -37 -12 -44 -16 -16
-3 -15 32 3 17 9 30 22 30 30 0 8 4 15 10 15 5 0 7 -7 4 -15 -11 -29 14 -15
26 14 25 62 -10 90 -62 50z"/>
<path d="M1090 961 c0 -6 4 -13 10 -16 6 -3 7 1 4 9 -7 18 -14 21 -14 7z"/>
<path d="M1925 10 c-15 -6 -8 -9 28 -9 26 -1 47 4 47 9 0 12 -47 12 -75 0z"/>
</g>
</svg>
